<?xml version="1.0" encoding="utf-8"?>
<!-- Generator: Adobe Illustrator 16.0.0, SVG Export Plug-In . SVG Version: 6.00 Build 0)  -->
<!DOCTYPE svg PUBLIC "-//W3C//DTD SVG 1.1//EN" "http://www.w3.org/Graphics/SVG/1.1/DTD/svg11.dtd">
<svg version="1.1" id="Layer_1" xmlns="http://www.w3.org/2000/svg" xmlns:xlink="http://www.w3.org/1999/xlink" x="0px" y="0px"
	 width="368.5px" height="78px" viewBox="0 0 368.5 78" enable-background="new 0 0 368.5 78" xml:space="preserve">
<g>
	<path fill="#414042" d="M85.258,12.811h4.13c2.38,0,3.991,1.54,3.991,3.99v40.534h22.192c2.38,0,3.991,1.61,3.991,3.99v2.73H85.258
		V12.811z"/>
	<path fill="#414042" d="M129.218,14.211c2.59,0,4.48,1.96,4.48,4.34c0,2.45-1.82,4.48-4.48,4.48c-2.66,0-4.55-2.03-4.55-4.48
		C124.668,16.241,126.558,14.211,129.218,14.211z M125.578,60.416V27.512h3.64c2.101,0,3.641,1.54,3.641,3.641v32.903h-3.641
		C127.118,64.056,125.578,62.516,125.578,60.416z"/>
	<path fill="#414042" d="M151.548,16.311v27.513L164.5,29.542c1.12-1.33,2.73-2.03,4.41-2.03h6.371l-16.172,17.922l17.502,18.622
		h-6.581c-1.68,0-3.22-0.63-4.34-1.96l-14.142-14.982v13.301c0,2.101-1.541,3.641-3.641,3.641h-3.71V12.671h3.71
		C150.008,12.671,151.548,14.211,151.548,16.311z"/>
	<path fill="#414042" d="M196.699,26.812c10.711,0,17.502,6.931,17.502,19.182c0,0.91-0.07,1.89-0.07,2.661h-28.493
		c0.421,5.46,5.251,9.871,12.602,9.871c3.57,0,6.23-0.98,7.841-1.82c1.681-0.771,3.431-0.84,4.831,0.7l1.68,1.75
		c0,0-4.62,5.601-14.771,5.601c-12.392,0-19.742-7.841-19.742-18.902C178.077,33.393,186.898,26.812,196.699,26.812z
		 M185.637,43.334h20.933c-0.28-6.091-3.36-10.291-9.941-10.291C190.539,33.043,185.988,37.104,185.637,43.334z"/>
	<path fill="#414042" d="M222.667,12.811h20.792c13.021,0,19.671,7.911,19.671,17.852c0,9.871-6.65,17.222-19.531,17.222h-12.882
		v12.042c0,2.52-1.61,4.13-4.061,4.13h-3.99V12.811z M243.459,41.304c7.56,0,11.621-4.76,11.621-10.641
		c0-6.021-4.199-11.131-11.901-11.131h-12.461v21.772H243.459z"/>
	<path fill="#414042" d="M274.328,14.211c2.59,0,4.48,1.96,4.48,4.34c0,2.45-1.82,4.48-4.48,4.48s-4.551-2.03-4.551-4.48
		C269.777,16.241,271.668,14.211,274.328,14.211z M270.688,60.416V27.512h3.641c2.1,0,3.641,1.54,3.641,3.641v32.903h-3.641
		C272.229,64.056,270.688,62.516,270.688,60.416z"/>
	<path fill="#414042" d="M305.969,26.812c11.342,0,19.111,8.401,19.111,18.902c0,10.571-7.77,19.042-19.111,19.042
		s-19.043-8.471-19.043-19.042C286.926,35.213,294.627,26.812,305.969,26.812z M294.348,45.714c0,7.21,4.131,12.321,11.621,12.321
		s11.621-5.111,11.621-12.321c0-7.141-4.131-12.182-11.621-12.182S294.348,38.574,294.348,45.714z"/>
	<path fill="#414042" d="M336.908,64.056h-3.711V27.512h3.711c2.1,0,3.641,1.54,3.641,3.641v1.96c2.66-3.08,6.93-6.23,13.021-6.23
		c8.189,0,13.93,5.88,13.93,15.332v21.842h-3.709c-2.102,0-3.641-1.54-3.641-3.641V43.614c0-6.44-3.361-10.011-9.031-10.011
		c-6.371,0-10.57,4.48-10.57,10.571v16.241C340.549,62.516,339.008,64.056,336.908,64.056z"/>
</g>
<path fill="#0089CF" d="M34.039,1L1.113,20.011v38.021l32.926,19.012l32.928-19.012V20.011L34.039,1z M27.478,24.42
	c1.432,0,2.804,0.569,3.817,1.581l2.747,2.745l8.304-8.307c1.036-1.035,2.439-1.616,3.902-1.616h4.551
	c0.69,0,1.033,0.833,0.547,1.32L38.391,33.098l-0.463,0.494l-2.216,2.199c-0.926,0.916-2.418,0.916-3.343,0l-2.695-2.678
	l0.015-0.016l-8.677-8.677H27.478z M13.843,26.822v-4.576c0-0.683,0.826-1.026,1.309-0.543l12.977,12.955l2.68,2.68
	c0.925,0.922,0.928,2.42,0.006,3.348l-2.684,2.703l-0.014-0.014l-8.679,8.676v-6.436c0-1.451,0.576-2.842,1.603-3.871l2.723-2.723
	l-8.312-8.313C14.417,29.67,13.843,28.291,13.843,26.822z M40.656,53.625c-1.466,0-2.873-0.584-3.909-1.621l-2.706-2.707l-8.34,8.34
	c-1.013,1.014-2.388,1.582-3.82,1.582h-4.602c-0.688,0-1.032-0.832-0.546-1.316l12.956-12.957l0.464-0.494l2.214-2.195
	c0.925-0.918,2.421-0.918,3.346,0l2.693,2.674l-0.015,0.016l8.679,8.68H40.656z M54.237,55.834c0,0.67-0.81,1.004-1.282,0.529
	L40.238,43.561l0,0l-0.016-0.018l-0.197-0.197l-2.668-2.688c-0.904-0.93-0.897-2.41,0.013-3.33l2.645-2.674l0.014,0.016l8.64-8.683
	v6.501c0,1.412-0.558,2.768-1.555,3.77l-2.76,2.76l0.007,0.007l0.002-0.003l8.288,8.33c1.024,1.027,1.587,2.393,1.587,3.848V55.834z
	"/>
</svg>
